<svg width="26" height="26" viewBox="0 0 26 26" fill="none" xmlns="http://www.w3.org/2000/svg">
<g clip-path="url(#clip0_0_88)">
<g clip-path="url(#clip1_0_88)">
<g clip-path="url(#clip2_0_88)">
<mask id="mask0_0_88" style="mask-type:luminance" maskUnits="userSpaceOnUse" x="1" y="0" width="25" height="25">
<path d="M25.0137 0.496338H1.01367V24.4963H25.0137V0.496338Z" fill="white"/>
</mask>
<g mask="url(#mask0_0_88)">
<path d="M25.0136 3.49634H5.25567L5.21367 3.14534C5.12772 2.41575 4.77706 1.74307 4.22816 1.25481C3.67927 0.766561 2.9703 0.49668 2.23567 0.496338H1.01367V2.49634H2.23567C2.4806 2.49637 2.71701 2.58629 2.90004 2.74905C3.08308 2.91181 3.20001 3.13608 3.22867 3.37934L4.81367 16.8473C4.89962 17.5769 5.25029 18.2496 5.79918 18.7378C6.34808 19.2261 7.05704 19.496 7.79167 19.4963H21.0136V17.4963H7.79167C7.54658 17.4963 7.31005 17.4062 7.127 17.2432C6.94394 17.0803 6.8271 16.8557 6.79867 16.6123L6.66767 15.4963H22.8496L25.0136 3.49634ZM21.1776 13.4963H6.43267L5.49167 5.49634H22.6206L21.1776 13.4963Z" fill="#253D4E"/>
<path d="M8.01367 24.4963C9.11824 24.4963 10.0137 23.6009 10.0137 22.4963C10.0137 21.3917 9.11824 20.4963 8.01367 20.4963C6.9091 20.4963 6.01367 21.3917 6.01367 22.4963C6.01367 23.6009 6.9091 24.4963 8.01367 24.4963Z" fill="#253D4E"/>
<path d="M18.0136 24.4963C19.1182 24.4963 20.0136 23.6009 20.0136 22.4963C20.0136 21.3917 19.1182 20.4963 18.0136 20.4963C16.9091 20.4963 16.0136 21.3917 16.0136 22.4963C16.0136 23.6009 16.9091 24.4963 18.0136 24.4963Z" fill="#253D4E"/>
</g>
</g>
</g>
</g>
<defs>
<clipPath id="clip0_0_88">
<rect width="25" height="25" fill="white" transform="translate(0.519531 0.129883)"/>
</clipPath>
<clipPath id="clip1_0_88">
<rect width="25" height="25" fill="white" transform="translate(0.519531 0.129883)"/>
</clipPath>
<clipPath id="clip2_0_88">
<rect width="25" height="25" fill="white" transform="translate(0.519531 0.129883)"/>
</clipPath>
</defs>
</svg>
