<svg width="21" height="22" viewBox="0 0 21 22" fill="none" xmlns="http://www.w3.org/2000/svg">
<g clip-path="url(#clip0_0_122)">
<g clip-path="url(#clip1_0_122)">
<g clip-path="url(#clip2_0_122)">
<mask id="mask0_0_122" style="mask-type:luminance" maskUnits="userSpaceOnUse" x="0" y="0" width="21" height="21">
<path d="M20.92 0.76709H0.920013V20.7671H20.92V0.76709Z" fill="white"/>
</mask>
<g mask="url(#mask0_0_122)">
<path d="M14.5867 4.16052C13.5867 3.31302 12.5567 2.43385 11.5142 1.39469L10.92 0.804688L10.3367 1.39552C8.46 3.27719 7.57333 6.16635 7.18833 7.89969C6.89364 7.44294 6.67497 6.94143 6.54083 6.41469L6.18833 5.05385L5.16333 6.01719C3.3675 7.70302 2.17 9.37552 2.17 12.0538C2.15323 13.9857 2.78243 15.8678 3.95768 17.4012C5.13292 18.9345 6.78681 20.0313 8.65667 20.5172C9.22006 20.6542 9.79509 20.7379 10.3742 20.7672C10.5552 20.7901 10.7375 20.802 10.92 20.803C11.0158 20.803 11.1092 20.7947 11.2025 20.7888C13.4726 20.7205 15.6268 19.7703 17.2077 18.1397C18.7886 16.5091 19.6719 14.3266 19.67 12.0555C19.67 8.47719 17.3142 6.47719 14.5867 4.16052ZM11.0867 19.1222C11.0033 19.1222 10.92 19.1305 10.8317 19.1297C10.0816 19.1067 9.36982 18.7931 8.84671 18.2551C8.32361 17.7171 8.03014 16.9967 8.02833 16.2463C8.02833 15.1897 8.59501 14.663 9.8775 13.5713C10.2008 13.2963 10.5525 12.9972 10.9225 12.6547C11.2467 12.9488 11.5617 13.2155 11.8525 13.463C13.1408 14.5563 13.8133 15.1772 13.8133 16.2438C13.8119 16.9809 13.5288 17.6896 13.0219 18.2247C12.5149 18.7598 11.8226 19.0809 11.0867 19.1222ZM15.27 17.6463L15.2533 17.658C15.4029 17.2023 15.4794 16.7259 15.48 16.2463C15.48 14.3588 14.2417 13.3072 12.9317 12.1947C12.4675 11.8013 11.9883 11.3947 11.51 10.9163L10.92 10.3272L10.3308 10.9163C9.79083 11.4555 9.2625 11.9055 8.79666 12.3022C7.49 13.4138 6.36083 14.3747 6.36083 16.2463C6.36261 16.7465 6.44708 17.2429 6.61083 17.7155C5.74338 17.0494 5.04164 16.1918 4.56041 15.2097C4.07918 14.2276 3.83148 13.1475 3.83667 12.0538C3.82296 10.5915 4.38895 9.18329 5.41083 8.13719C5.58685 8.49429 5.79552 8.83435 6.03417 9.15302C6.20847 9.38822 6.44778 9.56728 6.72261 9.66812C6.99744 9.76896 7.29577 9.78717 7.58083 9.72052C7.87082 9.65596 8.13608 9.50924 8.34489 9.29792C8.55371 9.08659 8.69724 8.81959 8.75833 8.52885C9.10726 6.61356 9.86193 4.79508 10.9717 3.19552C11.8508 4.02885 12.7217 4.76635 13.5075 5.43385C16.1175 7.65052 18.0075 9.25219 18.0075 12.0588C18.0095 13.1377 17.7637 14.2026 17.2889 15.1714C16.8141 16.1402 16.1239 16.9869 15.27 17.6463Z" fill="#3BB77E"/>
</g>
</g>
</g>
</g>
<defs>
<clipPath id="clip0_0_122">
<rect width="20" height="21" fill="white" transform="translate(0.920013 0.25)"/>
</clipPath>
<clipPath id="clip1_0_122">
<rect width="20" height="21" fill="white" transform="translate(0.920013 0.25)"/>
</clipPath>
<clipPath id="clip2_0_122">
<rect width="20" height="21" fill="white" transform="translate(0.920013 0.25)"/>
</clipPath>
</defs>
</svg>
