<svg width="37" height="37" viewBox="0 0 37 37" fill="none" xmlns="http://www.w3.org/2000/svg">
<g clip-path="url(#clip0_0_152)">
<path d="M31.86 19.386V17.25C31.86 13.6696 30.4377 10.2358 27.906 7.70406C25.3742 5.17232 21.9405 3.75 18.36 3.75C14.7796 3.75 11.3458 5.17232 8.8141 7.70406C6.28235 10.2358 4.86004 13.6696 4.86004 17.25V19.386C3.28678 20.0787 1.99924 21.2909 1.21297 22.8196C0.426698 24.3483 0.189425 26.1006 0.54087 27.7834C0.892315 29.4661 1.81115 30.977 3.14354 32.0632C4.47594 33.1494 6.14102 33.7449 7.86004 33.75H10.86V18.75H7.86004V17.25C7.86004 14.4652 8.96628 11.7945 10.9354 9.82538C12.9046 7.85625 15.5753 6.75 18.36 6.75C21.1448 6.75 23.8155 7.85625 25.7847 9.82538C27.7538 11.7945 28.86 14.4652 28.86 17.25V18.75H25.86V30.75H19.86V33.75H28.86C30.5791 33.7449 32.2441 33.1494 33.5765 32.0632C34.9089 30.977 35.8278 29.4661 36.1792 27.7834C36.5307 26.1006 36.2934 24.3483 35.5071 22.8196C34.7208 21.2909 33.4333 20.0787 31.86 19.386ZM7.86004 30.75C6.66656 30.75 5.52197 30.2759 4.67806 29.432C3.83414 28.5881 3.36004 27.4435 3.36004 26.25C3.36004 25.0565 3.83414 23.9119 4.67806 23.068C5.52197 22.2241 6.66656 21.75 7.86004 21.75V30.75ZM28.86 30.75V21.75C30.0535 21.75 31.1981 22.2241 32.042 23.068C32.8859 23.9119 33.36 25.0565 33.36 26.25C33.36 27.4435 32.8859 28.5881 32.042 29.432C31.1981 30.2759 30.0535 30.75 28.86 30.75Z" fill="#253D4E"/>
</g>
<defs>
<clipPath id="clip0_0_152">
<rect width="36" height="36" fill="white" transform="translate(0.359985 0.75)"/>
</clipPath>
</defs>
</svg>
