<svg width="26" height="26" viewBox="0 0 26 26" fill="none" xmlns="http://www.w3.org/2000/svg">
<g clip-path="url(#clip0_0_77)">
<g clip-path="url(#clip1_0_77)">
<g clip-path="url(#clip2_0_77)">
<mask id="mask0_0_77" style="mask-type:luminance" maskUnits="userSpaceOnUse" x="0" y="0" width="25" height="25">
<path d="M24.9355 0.496338H0.935547V24.4963H24.9355V0.496338Z" fill="white"/>
</mask>
<g mask="url(#mask0_0_77)">
<path d="M18.4355 1.41333C17.3095 1.43084 16.208 1.74518 15.2423 2.3246C14.2766 2.90402 13.4809 3.728 12.9355 4.71333C12.3902 3.728 11.5945 2.90402 10.6288 2.3246C9.66305 1.74518 8.56156 1.43084 7.43551 1.41333C5.64045 1.49132 3.94921 2.27658 2.73129 3.59756C1.51337 4.91854 0.867754 6.66785 0.935505 8.46333C0.935505 15.2383 11.8915 23.0633 12.3575 23.3953L12.9355 23.8043L13.5135 23.3953C13.9795 23.0653 24.9355 15.2383 24.9355 8.46333C25.0033 6.66785 24.3577 4.91854 23.1398 3.59756C21.9218 2.27658 20.2306 1.49132 18.4355 1.41333ZM12.9355 21.3423C9.68251 18.9123 2.93551 12.9423 2.93551 8.46333C2.86715 7.19804 3.30188 5.95706 4.14487 5.01103C4.98787 4.065 6.17074 3.49068 7.43551 3.41333C8.70028 3.49068 9.88315 4.065 10.7262 5.01103C11.5692 5.95706 12.0039 7.19804 11.9355 8.46333H13.9355C13.8672 7.19804 14.3019 5.95706 15.1449 5.01103C15.9879 4.065 17.1708 3.49068 18.4355 3.41333C19.7003 3.49068 20.8832 4.065 21.7262 5.01103C22.5692 5.95706 23.0039 7.19804 22.9355 8.46333C22.9355 12.9443 16.1885 18.9123 12.9355 21.3423Z" fill="#253D4E"/>
</g>
</g>
</g>
</g>
<defs>
<clipPath id="clip0_0_77">
<rect width="25" height="25" fill="white" transform="translate(0.160156 0.129883)"/>
</clipPath>
<clipPath id="clip1_0_77">
<rect width="25" height="25" fill="white" transform="translate(0.160156 0.129883)"/>
</clipPath>
<clipPath id="clip2_0_77">
<rect width="25" height="25" fill="white" transform="translate(0.160156 0.129883)"/>
</clipPath>
</defs>
</svg>
