<svg width="181" height="56" viewBox="0 0 181 56" fill="none" xmlns="http://www.w3.org/2000/svg">
<g clip-path="url(#clip0_0_23)">
<g clip-path="url(#clip1_0_23)">
<mask id="mask0_0_23" style="mask-type:luminance" maskUnits="userSpaceOnUse" x="0" y="5" width="66" height="51">
<path d="M65.805 5.02271H0.50946V55.25H65.805V5.02271Z" fill="white"/>
</mask>
<g mask="url(#mask0_0_23)">
<path opacity="0.8" d="M49.4365 38.4578C55.6534 39.1017 61.4414 32.4 62.3643 23.4891C63.2872 14.5782 58.9956 6.83249 52.7788 6.18859C46.5619 5.54469 40.7739 12.2464 39.851 21.1573C38.9281 30.0682 43.2197 37.8139 49.4365 38.4578Z" fill="#FDC040"/>
<path d="M40.1182 42.7295C46.0331 40.71 48.4816 32.2001 45.587 23.7221C42.6925 15.244 35.551 10.0083 29.6361 12.0278C23.7212 14.0472 21.2727 22.5571 24.1673 31.0352C27.0619 39.5132 34.2033 44.7489 40.1182 42.7295Z" fill="#FDC040"/>
<path d="M23.1117 32.6477H63.3529C63.6741 32.7873 64.4128 33.3174 64.7981 34.3219C65.2799 35.5776 66.642 53.9943 43.6212 50.2272C25.5079 50.2272 21.2813 49.6691 21.4419 49.3901C24.786 48.553 25.2045 45.2045 25.6231 42.6932C26.0417 40.1818 23.1117 32.6477 23.1117 32.6477Z" fill="#81B13D"/>
<path d="M53.3461 15.4302C52.8178 15.4302 52.3896 15.8584 52.3896 16.3867V16.5394C52.3896 17.0678 52.8178 17.4959 53.3461 17.4959C53.8745 17.4959 54.3026 17.0678 54.3026 16.5394V16.3867C54.3026 15.8583 53.8745 15.4302 53.3461 15.4302Z" fill="#253D4E"/>
<path d="M55.8303 19.6973C55.302 19.6973 54.8738 20.1254 54.8738 20.6537V20.8065C54.8738 21.3348 55.302 21.7629 55.8303 21.7629C56.3587 21.7629 56.7868 21.3348 56.7868 20.8065V20.6537C56.7868 20.1254 56.3587 19.6973 55.8303 19.6973Z" fill="#253D4E"/>
<path d="M34.8874 18.7991L34.8166 18.6636C34.5722 18.1952 33.9941 18.0137 33.5262 18.2583C33.0578 18.5028 32.8764 19.0805 33.1209 19.5488L33.1917 19.6843C33.3621 20.0113 33.6954 20.1986 34.0403 20.1986C34.1894 20.1986 34.3407 20.1636 34.4821 20.0896C34.9504 19.8451 35.1319 19.2674 34.8874 18.7991Z" fill="#253D4E"/>
<path d="M39.0647 21.4317L38.9939 21.2962C38.7494 20.8277 38.1715 20.6462 37.7034 20.8908C37.2351 21.1354 37.0537 21.7131 37.2981 22.1814L37.3689 22.317C37.5394 22.6439 37.8725 22.8311 38.2175 22.8311C38.3667 22.8311 38.518 22.7962 38.6593 22.7222C39.1276 22.4778 39.3091 21.9 39.0647 21.4317Z" fill="#253D4E"/>
<path d="M33.1132 40.4612L30.2682 37.6161C29.8946 37.2426 29.2889 37.2425 28.9157 37.616C28.542 37.9896 28.542 38.5952 28.9155 38.9686L31.7605 41.8137C31.9473 42.0005 32.1919 42.0939 32.4368 42.0939C32.6815 42.0939 32.9263 42.0005 33.1131 41.8139C33.4867 41.4403 33.4867 40.8347 33.1132 40.4612Z" fill="#253D4E"/>
<path d="M41.5664 38.6788C41.2602 38.2485 40.6631 38.1477 40.2325 38.4543L30.3036 45.5231C29.8733 45.8294 29.7728 46.4267 30.0792 46.857C30.2657 47.1191 30.56 47.2588 30.8591 47.2588C31.0509 47.2588 31.2448 47.2012 31.413 47.0814L41.3419 40.0126C41.7722 39.7063 41.8727 39.1091 41.5664 38.6788Z" fill="#253D4E"/>
<path d="M45.0765 40.1216C44.7705 39.6913 44.1733 39.5906 43.7426 39.8972L39.9314 42.6105C39.501 42.9171 39.4007 43.5142 39.707 43.9445C39.8936 44.2067 40.1879 44.3464 40.4869 44.3464C40.6788 44.3464 40.8725 44.2887 41.0408 44.1688L44.8521 41.4555C45.2824 41.1492 45.3828 40.552 45.0765 40.1216Z" fill="#253D4E"/>
<path d="M65.6244 35.7818C65.3152 35.3533 64.7176 35.2566 64.289 35.5654L63.9704 35.7951C63.9717 35.713 63.9736 35.6312 63.9736 35.549C63.9736 34.6365 63.6185 33.7779 62.9719 33.1296C62.3255 32.4848 61.4669 32.1297 60.5545 32.1297H60.2714C61.3211 30.1016 61.854 27.6593 61.854 24.84C61.854 19.3109 59.7814 13.2672 56.5739 9.44325C56.2343 9.03842 55.6311 8.98543 55.2264 9.32513C54.8217 9.66467 54.7688 10.268 55.1083 10.6726C58.0441 14.1726 59.9412 19.7337 59.9412 24.84C59.9412 27.7828 59.3086 30.2322 58.061 32.1297H56.1673L57.0087 31.5307C57.4392 31.2244 57.5395 30.6271 57.2332 30.1968C56.927 29.7665 56.3301 29.6658 55.8993 29.9724L52.8692 32.1297H47.1798C47.7532 29.2254 47.156 25.9808 45.4232 22.6617C44.1828 20.2866 42.4213 17.9883 40.3949 16.0412C42.4821 10.7621 45.9361 7.38489 49.3017 7.38489C50.3181 7.38489 51.3424 7.68063 52.3459 8.26421C52.8027 8.52945 53.3882 8.3745 53.6537 7.91797C53.9191 7.46128 53.7641 6.87578 53.3075 6.61027C52.008 5.8549 50.6602 5.47192 49.3017 5.47192C45.23 5.47192 41.3148 8.97061 38.8803 14.6929C38.0512 14.0107 37.1919 13.3903 36.3165 12.8497C32.1961 10.305 28.2944 9.75583 25.3304 11.3032C22.5966 12.7319 20.8455 15.8999 20.3994 20.2235C20.3451 20.749 20.7271 21.219 21.2525 21.273C21.7792 21.3281 22.248 20.9451 22.302 20.4198C22.6801 16.7558 24.0702 14.1202 26.2159 12.9987C31.4401 10.2713 40.0678 16.5394 43.7274 23.5472C45.3551 26.665 45.8559 29.5482 45.2222 32.1298H34.4983C34.4956 32.1298 34.4931 32.1298 34.4904 32.1298H29.5891L27.9839 30.5246C27.6102 30.1512 27.0047 30.1512 26.6312 30.5246C26.2576 30.8982 26.2576 31.5038 26.6312 31.8773L26.8836 32.1297H24.2577C23.1923 29.7083 22.4919 26.9277 22.2747 24.2303C22.2323 23.7039 21.7717 23.3102 21.2446 23.3537C20.7181 23.3961 20.3256 23.8571 20.368 24.3838C20.5444 26.5758 20.9968 28.7569 21.6952 30.8154C18.9691 28.4924 15.4083 27.244 11.7421 27.4431C11.4004 27.4617 11.0945 27.6615 10.9404 27.967C9.50199 30.8151 9.09758 34.0299 9.69411 37.0744C9.69972 37.1667 9.71797 37.2554 9.74786 37.3386C9.93529 38.2072 10.2057 39.0603 10.5566 39.8857C6.46264 40.5207 2.82712 42.9338 0.647997 46.5283C0.470601 46.8209 0.463205 47.186 0.628357 47.4858C2.16957 50.2829 4.59891 52.4319 7.45292 53.6563C7.52906 53.7009 7.60851 53.7347 7.69025 53.7564C9.26643 54.399 10.966 54.7621 12.7139 54.7982C12.8096 54.8002 12.9044 54.8012 12.9999 54.8012C13.6802 54.8012 14.3543 54.7498 15.0183 54.6532C15.0808 54.6495 15.1429 54.6414 15.2032 54.6258C18.0145 54.1785 20.6282 52.8876 22.6916 50.9479C22.7384 50.9549 22.7859 50.9598 22.8346 50.9598H27.1265C27.6548 50.9598 28.083 50.5317 28.083 50.0033C28.083 49.475 27.6548 49.0468 27.1265 49.0468H24.3802C24.6312 48.7066 24.869 48.3545 25.0904 47.9892C25.0972 47.978 25.1027 47.9662 25.1089 47.9549C25.1146 47.9445 25.1216 47.9352 25.1269 47.9245C27.3548 43.5108 27.1026 38.2173 24.485 34.0426H28.7965L31.4006 36.6468C31.5873 36.8334 31.8322 36.9268 32.077 36.9268C32.3217 36.9268 32.5665 36.8334 32.7534 36.6468C33.1269 36.2731 33.1269 35.6676 32.7534 35.294L31.502 34.0426H34.0982L37.6492 37.5936C37.836 37.7804 38.0809 37.8737 38.3256 37.8737C38.5704 37.8737 38.8152 37.7804 39.0021 37.5936C39.3756 37.22 39.3756 36.6144 39.0021 36.2409L36.8039 34.0428H45.9407L45.9439 34.0431L45.9471 34.0428H50.1826L48.0944 35.5295C47.6639 35.8358 47.5635 36.433 47.8699 36.8632C48.0564 37.1255 48.3508 37.2651 48.6499 37.2651C48.8417 37.2651 49.0354 37.2075 49.2037 37.0876L53.4806 34.0426H58.5594L58.5611 34.0428L58.5632 34.0426H60.5552C60.9575 34.0426 61.3364 34.1994 61.62 34.4821C61.9045 34.7674 62.0612 35.1463 62.0612 35.5488C62.0612 36.1246 62.0248 36.692 61.9545 37.2491L54.9314 42.3131C54.503 42.622 54.4061 43.2198 54.715 43.6484C54.9021 43.9077 55.1947 44.0456 55.4917 44.0456C55.6855 44.0456 55.8811 43.9868 56.0504 43.8648L61.2707 40.1008C60.2278 43.0031 58.2173 45.4477 55.63 47.0441L44.9634 36.3774C44.5897 36.0039 43.9842 36.0039 43.6106 36.3774C43.2371 36.7511 43.2371 37.3566 43.6106 37.7301L53.8487 47.9682C52.4623 48.5604 50.9573 48.9266 49.3803 49.0212L45.2103 44.8515C44.837 44.478 44.2313 44.4779 43.8578 44.8516C43.4843 45.2251 43.4843 45.8307 43.8579 46.2042L46.7004 49.0465H37.3366L35.802 47.512C35.4284 47.1386 34.8228 47.1386 34.4493 47.512C34.0758 47.8856 34.0758 48.4912 34.4493 48.8647L34.6311 49.0465H31.1114C30.583 49.0465 30.1549 49.4747 30.1549 50.003C30.1549 50.5314 30.583 50.9595 31.1114 50.9595H36.5433L38.7005 53.1169C38.8874 53.3035 39.1322 53.3969 39.377 53.3969C39.6217 53.3969 39.8666 53.3035 40.0534 53.1169C40.4269 52.7432 40.4269 52.1377 40.0534 51.7641L39.2488 50.9595H48.5615C50.9728 50.9595 53.2563 50.4023 55.2908 49.4109L56.0942 50.2144C56.2811 50.4011 56.5259 50.4944 56.7706 50.4944C57.0154 50.4944 57.2603 50.4011 57.4471 50.2144C57.8206 49.8407 57.8206 49.2352 57.4471 48.8616L57.014 48.4286C60.4625 46.1582 62.9495 42.5423 63.721 38.3335L65.408 37.1171C65.8363 36.8082 65.9333 36.2105 65.6244 35.7818ZM22.7433 34.8671C22.8506 35.0313 22.9521 35.1982 23.0508 35.3665L20.6297 40.1706L17.8652 35.9405L19.7999 31.7502C20.9426 32.5968 21.9449 33.6454 22.7433 34.8671ZM19.5823 42.0646L14.3092 42.3301C13.9538 41.9201 13.6231 41.4847 13.3221 41.0241C12.6932 40.0616 12.2133 39.0266 11.8827 37.953L16.8424 37.8721L19.5823 42.0646ZM18.165 30.7275L16.6304 34.0509L13.5804 29.3838C15.1932 29.527 16.7505 29.99 18.165 30.7275ZM11.9784 30.4292L15.6054 35.979L11.458 36.0467C11.1956 34.1742 11.3662 32.2473 11.9784 30.4292ZM11.484 41.695C11.561 41.8209 11.6397 41.9462 11.7207 42.0705C12.1457 42.7207 12.6209 43.3279 13.1383 43.8905C13.176 43.9396 13.2185 43.9847 13.2648 44.0257C14.1239 44.9356 15.0957 45.7225 16.1507 46.3701L11.1183 46.2666L8.7457 42.2984C9.6243 41.995 10.5421 41.7908 11.484 41.695ZM6.97774 43.0691L8.86162 46.2201L3.28495 46.1055C4.3126 44.8503 5.56993 43.8217 6.97774 43.0691ZM7.59154 51.6166C5.8973 50.7768 4.40251 49.5489 3.24707 48.0179L9.87527 48.1542L7.59154 51.6166ZM14.3879 52.8073C13.8488 52.8697 13.3028 52.8966 12.7527 52.8857C11.6033 52.8619 10.4778 52.6742 9.40514 52.3414L12.1362 48.2006L17.1435 48.3036L14.3879 52.8073ZM16.9961 52.2098L19.3582 48.3492L22.2616 48.4089C22.3213 48.4144 22.3813 48.4184 22.4411 48.423C21.0018 50.1704 19.1087 51.4755 16.9961 52.2098ZM22.3734 46.498C20.1541 46.2805 18.0442 45.4576 16.2723 44.1467L20.7939 43.9189L22.4808 46.5002L22.3734 46.498ZM24.0876 45.4621L21.8391 42.0214L24.0708 37.5929C24.9346 40.1281 24.9489 42.9029 24.0876 45.4621Z" fill="#253D4E"/>
<path d="M56.2375 37.4214C55.9285 36.9929 55.3307 36.8963 54.9023 37.2051L51.5318 39.6355C51.1034 39.9444 51.0065 40.5421 51.3155 40.9707C51.5025 41.23 51.7952 41.3679 52.092 41.3679C52.286 41.3679 52.4816 41.3091 52.6507 41.1871L56.0213 38.7567C56.4497 38.4478 56.5466 37.85 56.2375 37.4214Z" fill="#253D4E"/>
</g>
<path d="M80.0639 51.0644L80.0547 46.8306L77.9561 50.3344H77.4268L75.3282 46.8853V51.0644H74.1967V44.6772H75.1731L77.7097 48.911L80.2007 44.6772H81.1771L81.1862 51.0644H80.0639ZM87.9669 49.5862H84.7732L84.1433 51.0644H82.9206L85.7945 44.6772H86.9632L89.8462 51.0644H88.6056L87.9669 49.5862ZM87.5742 48.6555L86.3696 45.8634L85.1742 48.6555H87.5742ZM95.7504 51.0644L94.4453 49.1939C94.3901 49.2 94.3081 49.203 94.1992 49.203H92.7569V51.0644H91.5707V44.6772H94.1992C94.7526 44.6772 95.2331 44.7684 95.6408 44.9509C96.0543 45.1334 96.3707 45.395 96.5892 45.7356C96.8085 46.0763 96.9182 46.4808 96.9182 46.9492C96.9182 47.4298 96.7993 47.8434 96.5624 48.1902C96.3305 48.5369 95.9965 48.7954 95.5587 48.9658L97.0279 51.0644H95.7504ZM95.7228 46.9492C95.7228 46.5416 95.5889 46.2284 95.321 46.0094C95.0531 45.7904 94.6613 45.6809 94.144 45.6809H92.7569V48.2267H94.144C94.6613 48.2267 95.0531 48.1172 95.321 47.8982C95.5889 47.6731 95.7228 47.3568 95.7228 46.9492ZM100.364 45.6809H98.2475V44.6772H103.667V45.6809H101.55V51.0644H100.364V45.6809ZM113.695 51.1648L112.891 50.3892C112.295 50.9002 111.58 51.1557 110.747 51.1557C110.303 51.1557 109.904 51.0827 109.552 50.9367C109.199 50.7907 108.923 50.5899 108.722 50.3344C108.521 50.0728 108.42 49.7778 108.42 49.4494C108.42 49.054 108.536 48.7072 108.768 48.4092C108.999 48.105 109.375 47.8069 109.899 47.5149C109.643 47.2594 109.461 47.0222 109.351 46.8032C109.241 46.5781 109.187 46.347 109.187 46.1097C109.187 45.6596 109.354 45.2977 109.688 45.0239C110.029 44.7441 110.48 44.6042 111.04 44.6042C111.556 44.6042 111.97 44.7319 112.28 44.9874C112.591 45.2368 112.746 45.5775 112.746 46.0094C112.746 46.3379 112.642 46.6299 112.435 46.8853C112.235 47.1408 111.904 47.3993 111.441 47.6609L112.818 48.9749C112.971 48.6768 113.09 48.3179 113.174 47.8982L114.096 48.1993C113.975 48.765 113.783 49.2516 113.521 49.6592L114.324 50.4257L113.695 51.1648ZM111.04 45.4163C110.79 45.4163 110.593 45.4801 110.446 45.6079C110.3 45.7295 110.228 45.8908 110.228 46.0915C110.228 46.2375 110.267 46.3774 110.346 46.5112C110.425 46.639 110.577 46.8154 110.802 47.0405C111.167 46.8397 111.42 46.6663 111.559 46.5204C111.705 46.3683 111.779 46.204 111.779 46.0276C111.779 45.839 111.712 45.69 111.578 45.5805C111.45 45.471 111.271 45.4163 111.04 45.4163ZM110.829 50.225C111.359 50.225 111.821 50.0637 112.217 49.7413L110.528 48.1263C110.163 48.327 109.904 48.5217 109.753 48.7103C109.606 48.8928 109.534 49.0996 109.534 49.3307C109.534 49.5984 109.652 49.8143 109.889 49.9786C110.127 50.1428 110.44 50.225 110.829 50.225ZM124.055 47.7978H125.177V50.3436C124.849 50.6052 124.465 50.8059 124.028 50.9458C123.59 51.0857 123.139 51.1557 122.677 51.1557C122.026 51.1557 121.439 51.0158 120.916 50.7359C120.393 50.4501 119.983 50.0577 119.685 49.5589C119.386 49.06 119.237 48.4974 119.237 47.8708C119.237 47.2442 119.386 46.6816 119.685 46.1827C119.983 45.6839 120.393 45.2946 120.916 45.0148C121.445 44.7289 122.039 44.5859 122.696 44.5859C123.231 44.5859 123.717 44.6742 124.156 44.8505C124.593 45.0269 124.961 45.2855 125.259 45.6261L124.511 46.3561C124.024 45.8695 123.437 45.6261 122.75 45.6261C122.3 45.6261 121.899 45.7204 121.545 45.909C121.199 46.0976 120.925 46.3622 120.724 46.7028C120.53 47.0435 120.432 47.4328 120.432 47.8708C120.432 48.2966 120.53 48.6799 120.724 49.0205C120.925 49.3611 121.199 49.6288 121.545 49.8235C121.899 50.0181 122.297 50.1155 122.741 50.1155C123.24 50.1155 123.678 50.006 124.055 49.787V47.7978ZM131.833 51.0644L130.529 49.1939C130.473 49.2 130.391 49.203 130.282 49.203H128.84V51.0644H127.654V44.6772H130.282C130.836 44.6772 131.316 44.7684 131.724 44.9509C132.138 45.1334 132.454 45.395 132.672 45.7356C132.892 46.0763 133.001 46.4808 133.001 46.9492C133.001 47.4298 132.883 47.8434 132.646 48.1902C132.414 48.5369 132.08 48.7954 131.642 48.9658L133.11 51.0644H131.833ZM131.806 46.9492C131.806 46.5416 131.672 46.2284 131.404 46.0094C131.136 45.7904 130.745 45.6809 130.227 45.6809H128.84V48.2267H130.227C130.745 48.2267 131.136 48.1172 131.404 47.8982C131.672 47.6731 131.806 47.3568 131.806 46.9492ZM138.224 51.1557C137.574 51.1557 136.987 51.0158 136.464 50.7359C135.941 50.4501 135.53 50.0577 135.232 49.5589C134.934 49.054 134.785 48.4913 134.785 47.8708C134.785 47.2503 134.934 46.6907 135.232 46.1919C135.53 45.687 135.941 45.2946 136.464 45.0148C136.987 44.7289 137.574 44.5859 138.224 44.5859C138.876 44.5859 139.462 44.7289 139.986 45.0148C140.509 45.2946 140.919 45.6839 141.218 46.1827C141.516 46.6816 141.665 47.2442 141.665 47.8708C141.665 48.4974 141.516 49.06 141.218 49.5589C140.919 50.0577 140.509 50.4501 139.986 50.7359C139.462 51.0158 138.876 51.1557 138.224 51.1557ZM138.224 50.1155C138.65 50.1155 139.034 50.0212 139.374 49.8326C139.715 49.638 139.982 49.3703 140.177 49.0296C140.371 48.6829 140.469 48.2966 140.469 47.8708C140.469 47.445 140.371 47.0617 140.177 46.7211C139.982 46.3744 139.715 46.1067 139.374 45.9181C139.034 45.7235 138.65 45.6261 138.224 45.6261C137.799 45.6261 137.416 45.7235 137.075 45.9181C136.734 46.1067 136.466 46.3744 136.272 46.7211C136.077 47.0617 135.98 47.445 135.98 47.8708C135.98 48.2966 136.077 48.6829 136.272 49.0296C136.466 49.3703 136.734 49.638 137.075 49.8326C137.416 50.0212 137.799 50.1155 138.224 50.1155ZM146.791 51.1557C146.146 51.1557 145.562 51.0158 145.038 50.7359C144.522 50.4501 144.114 50.0577 143.816 49.5589C143.524 49.06 143.378 48.4974 143.378 47.8708C143.378 47.2442 143.527 46.6816 143.825 46.1827C144.123 45.6839 144.531 45.2946 145.048 45.0148C145.571 44.7289 146.155 44.5859 146.8 44.5859C147.323 44.5859 147.8 44.6772 148.232 44.8597C148.664 45.0422 149.029 45.3068 149.327 45.6535L148.561 46.3744C148.099 45.8755 147.53 45.6261 146.855 45.6261C146.416 45.6261 146.025 45.7235 145.677 45.9181C145.331 46.1067 145.06 46.3713 144.865 46.712C144.671 47.0526 144.574 47.4389 144.574 47.8708C144.574 48.3027 144.671 48.689 144.865 49.0296C145.06 49.3703 145.331 49.638 145.677 49.8326C146.025 50.0212 146.416 50.1155 146.855 50.1155C147.53 50.1155 148.099 49.863 148.561 49.3581L149.327 50.0881C149.029 50.4348 148.661 50.6994 148.224 50.8819C147.792 51.0644 147.314 51.1557 146.791 51.1557ZM156.167 50.0698V51.0644H151.376V44.6772H156.039V45.6718H152.562V47.3324H155.646V48.3088H152.562V50.0698H156.167ZM162.58 51.0644L161.276 49.1939C161.221 49.2 161.139 49.203 161.029 49.203H159.588V51.0644H158.401V44.6772H161.029C161.583 44.6772 162.064 44.7684 162.471 44.9509C162.885 45.1334 163.201 45.395 163.42 45.7356C163.639 46.0763 163.749 46.4808 163.749 46.9492C163.749 47.4298 163.63 47.8434 163.393 48.1902C163.161 48.5369 162.827 48.7954 162.389 48.9658L163.858 51.0644H162.58ZM162.554 46.9492C162.554 46.5416 162.42 46.2284 162.152 46.0094C161.884 45.7904 161.492 45.6809 160.975 45.6809H159.588V48.2267H160.975C161.492 48.2267 161.884 48.1172 162.152 47.8982C162.42 47.6731 162.554 47.3568 162.554 46.9492ZM168.654 48.8106V51.0644H167.468V48.8289L164.959 44.6772H166.228L168.098 47.7887L169.987 44.6772H171.155L168.654 48.8106Z" fill="#253D4E"/>
<path d="M98.9825 5.98535C99.7259 5.98535 100.33 6.23314 100.795 6.72872C101.259 7.22429 101.491 7.84376 101.491 8.58712V35.6734C101.491 36.4787 101.213 37.1602 100.655 37.7177C100.129 38.2442 99.463 38.5075 98.6577 38.5075C98.2551 38.5075 97.8365 38.4456 97.4029 38.3217C97.0002 38.1668 96.6905 37.9655 96.4737 37.7177L78.2148 14.534L79.4228 13.7907V35.9057C79.4228 36.6491 79.175 37.2686 78.6794 37.7641C78.2148 38.2597 77.5953 38.5075 76.821 38.5075C76.0776 38.5075 75.4736 38.2597 75.009 37.7641C74.5444 37.2686 74.3121 36.6491 74.3121 35.9057V8.81942C74.3121 8.01411 74.5754 7.34818 75.102 6.82164C75.6595 6.26411 76.3409 5.98535 77.1462 5.98535C77.5798 5.98535 78.029 6.07827 78.4936 6.26411C78.9582 6.41898 79.2989 6.66677 79.5157 7.00748L97.217 29.5871L96.4268 30.1447V8.58712C96.4268 7.84376 96.6595 7.22429 97.1241 6.72872C97.5887 6.23314 98.2082 5.98535 98.9825 5.98535ZM119.469 38.9721C116.837 38.9721 114.545 38.4301 112.593 37.346C110.673 36.231 109.186 34.7287 108.133 32.8394C107.111 30.95 106.599 28.8128 106.599 26.4279C106.599 23.6402 107.157 21.2708 108.272 19.3194C109.418 17.3371 110.905 15.8194 112.732 14.7663C114.56 13.7132 116.496 13.1867 118.54 13.1867C120.12 13.1867 121.607 13.5119 123 14.1624C124.425 14.8128 125.679 15.711 126.763 16.857C127.847 17.9721 128.699 19.273 129.319 20.7597C129.969 22.2464 130.294 23.8261 130.294 25.4986C130.263 26.242 129.969 26.846 129.412 27.3106C128.854 27.7752 128.204 28.0075 127.461 28.0075H109.713L108.319 23.3615H125.369L124.347 24.2907V23.0363C124.285 22.138 123.961 21.3327 123.372 20.6203C122.815 19.9079 122.102 19.3504 121.235 18.9478C120.399 18.5141 119.5 18.2973 118.54 18.2973C117.611 18.2973 116.744 18.4212 115.938 18.669C115.133 18.9168 114.436 19.3349 113.847 19.9234C113.259 20.5119 112.794 21.3017 112.453 22.2929C112.113 23.284 111.943 24.5385 111.943 26.0562C111.943 27.7287 112.284 29.1535 112.965 30.3305C113.677 31.4765 114.576 32.3593 115.66 32.9787C116.775 33.5672 117.952 33.8615 119.191 33.8615C120.337 33.8615 121.25 33.7686 121.931 33.5827C122.613 33.3969 123.155 33.1801 123.558 32.9323C123.992 32.6535 124.378 32.4212 124.719 32.2354C125.276 31.9566 125.803 31.8172 126.299 31.8172C126.98 31.8172 127.538 32.0495 127.971 32.5141C128.436 32.9787 128.669 33.5208 128.669 34.1402C128.669 34.9765 128.235 35.7354 127.368 36.4168C126.562 37.0982 125.431 37.7022 123.976 38.2287C122.52 38.7243 121.018 38.9721 119.469 38.9721ZM133.485 34.6513C133.176 34.2177 133.036 33.6602 133.067 32.9787C133.098 32.2973 133.5 31.7088 134.275 31.2133C134.77 30.9035 135.297 30.7796 135.854 30.8416C136.412 30.8725 136.954 31.1513 137.481 31.6779C138.379 32.5761 139.323 33.273 140.315 33.7686C141.306 34.2641 142.545 34.5119 144.031 34.5119C144.496 34.481 145.007 34.419 145.565 34.3261C146.122 34.2022 146.602 33.9544 147.005 33.5827C147.438 33.1801 147.655 32.5761 147.655 31.7708C147.655 31.0894 147.423 30.5473 146.959 30.1447C146.494 29.742 145.875 29.4013 145.1 29.1225C144.357 28.8438 143.521 28.5805 142.592 28.3327C141.631 28.054 140.64 27.7442 139.618 27.4035C138.627 27.0628 137.713 26.6292 136.876 26.1026C136.04 25.5451 135.359 24.8172 134.832 23.919C134.306 23.0208 134.043 21.8902 134.043 20.5274C134.043 18.9787 134.476 17.6624 135.344 16.5783C136.211 15.4942 137.326 14.6579 138.689 14.0694C140.083 13.4809 141.538 13.1867 143.056 13.1867C144.016 13.1867 145.023 13.3106 146.076 13.5584C147.129 13.7752 148.136 14.1469 149.096 14.6734C150.056 15.169 150.861 15.8349 151.512 16.6712C151.853 17.1358 152.053 17.6933 152.115 18.3438C152.177 18.9942 151.884 19.5827 151.233 20.1093C150.769 20.4809 150.226 20.6513 149.607 20.6203C148.987 20.5584 148.476 20.3416 148.074 19.9699C147.547 19.2885 146.835 18.7464 145.937 18.3438C145.069 17.9411 144.062 17.7398 142.916 17.7398C142.452 17.7398 141.941 17.8017 141.384 17.9256C140.857 18.0185 140.392 18.2509 139.99 18.6225C139.587 18.9632 139.385 19.5208 139.385 20.2951C139.385 21.0075 139.618 21.5805 140.083 22.0141C140.547 22.4168 141.167 22.7575 141.941 23.0363C142.746 23.284 143.598 23.5318 144.496 23.7796C145.425 24.0274 146.37 24.3217 147.33 24.6624C148.291 25.0031 149.173 25.4522 149.978 26.0097C150.784 26.5672 151.434 27.2951 151.93 28.1933C152.425 29.0606 152.673 30.1756 152.673 31.5385C152.673 33.1181 152.208 34.4655 151.279 35.5805C150.35 36.6956 149.189 37.5473 147.795 38.1358C146.401 38.6933 144.976 38.9721 143.521 38.9721C141.693 38.9721 139.866 38.6624 138.038 38.0429C136.211 37.3925 134.693 36.2619 133.485 34.6513ZM157.599 14.1159H168.61C169.353 14.1159 169.973 14.3637 170.468 14.8593C170.964 15.3548 171.212 15.9743 171.212 16.7177C171.212 17.4301 170.964 18.034 170.468 18.5296C169.973 18.9942 169.353 19.2265 168.61 19.2265H157.599C156.856 19.2265 156.237 18.9787 155.741 18.4832C155.245 17.9876 154.998 17.3681 154.998 16.6247C154.998 15.9124 155.245 15.3239 155.741 14.8593C156.237 14.3637 156.856 14.1159 157.599 14.1159ZM162.57 8.30836C163.376 8.30836 164.026 8.58712 164.522 9.14465C165.048 9.6712 165.312 10.3371 165.312 11.1424V31.8172C165.312 32.2509 165.389 32.6071 165.544 32.8858C165.73 33.1646 165.962 33.3659 166.241 33.4898C166.551 33.6137 166.876 33.6756 167.216 33.6756C167.588 33.6756 167.929 33.6137 168.238 33.4898C168.548 33.3349 168.905 33.2575 169.307 33.2575C169.741 33.2575 170.128 33.4588 170.468 33.8615C170.84 34.2641 171.026 34.8217 171.026 35.5341C171.026 36.4013 170.546 37.1137 169.586 37.6712C168.657 38.2287 167.65 38.5075 166.566 38.5075C165.915 38.5075 165.188 38.461 164.383 38.3681C163.608 38.2442 162.865 37.981 162.153 37.5783C161.471 37.1447 160.898 36.4942 160.433 35.627C159.968 34.7597 159.737 33.5672 159.737 32.0495V11.1424C159.737 10.3371 159.999 9.6712 160.526 9.14465C161.084 8.58712 161.765 8.30836 162.57 8.30836Z" fill="#3BB77E"/>
</g>
</g>
<defs>
<clipPath id="clip0_0_23">
<rect width="180" height="55.25" fill="white" transform="translate(0.5)"/>
</clipPath>
<clipPath id="clip1_0_23">
<rect width="179.981" height="55.25" fill="white" transform="translate(0.50946)"/>
</clipPath>
</defs>
</svg>
