<svg width="26" height="26" viewBox="0 0 26 26" fill="none" xmlns="http://www.w3.org/2000/svg">
<g clip-path="url(#clip0_0_101)">
<g clip-path="url(#clip1_0_101)">
<g clip-path="url(#clip2_0_101)">
<mask id="mask0_0_101" style="mask-type:luminance" maskUnits="userSpaceOnUse" x="0" y="0" width="25" height="25">
<path d="M24.4639 0.496338H0.463867V24.4963H24.4639V0.496338Z" fill="white"/>
</mask>
<g mask="url(#mask0_0_101)">
<path d="M21.4638 24.4963H19.4638V19.4533C19.463 18.6693 19.1512 17.9177 18.5969 17.3633C18.0425 16.8089 17.2908 16.4971 16.5068 16.4963H8.42087C7.63686 16.4971 6.8852 16.8089 6.33083 17.3633C5.77646 17.9177 5.46466 18.6693 5.46387 19.4533V24.4963H3.46387V19.4533C3.46545 18.1391 3.98822 16.8792 4.91749 15.9499C5.84676 15.0207 7.10667 14.4979 8.42087 14.4963H16.5068C17.821 14.4979 19.0809 15.0207 20.0102 15.9499C20.9395 16.8792 21.4622 18.1391 21.4638 19.4533V24.4963Z" fill="#253D4E"/>
<path d="M12.4638 12.4963C11.2772 12.4963 10.1171 12.1444 9.13045 11.4851C8.14375 10.8258 7.37472 9.8888 6.92059 8.79244C6.46647 7.69608 6.34765 6.48968 6.57916 5.3258C6.81067 4.16191 7.38211 3.09281 8.22123 2.2537C9.06034 1.41458 10.1294 0.84314 11.2933 0.611629C12.4572 0.380118 13.6636 0.498938 14.7599 0.953064C15.8563 1.40719 16.7934 2.17622 17.4527 3.16292C18.1119 4.14961 18.4638 5.30965 18.4638 6.49634C18.4622 8.08715 17.8296 9.61235 16.7047 10.7372C15.5799 11.8621 14.0547 12.4947 12.4638 12.4963ZM12.4638 2.49634C11.6727 2.49634 10.8994 2.73093 10.2416 3.17046C9.58379 3.60999 9.0711 4.2347 8.76835 4.96561C8.4656 5.69651 8.38639 6.50078 8.54073 7.2767C8.69507 8.05262 9.07603 8.76536 9.63544 9.32477C10.1948 9.88418 10.9076 10.2651 11.6835 10.4195C12.4594 10.5738 13.2637 10.4946 13.9946 10.1918C14.7255 9.88911 15.3502 9.37642 15.7897 8.71862C16.2292 8.06082 16.4638 7.28746 16.4638 6.49634C16.4638 5.43547 16.0424 4.41806 15.2923 3.66791C14.5421 2.91777 13.5247 2.49634 12.4638 2.49634Z" fill="#253D4E"/>
</g>
</g>
</g>
</g>
<defs>
<clipPath id="clip0_0_101">
<rect width="25" height="25" fill="white" transform="translate(0.0195312 0.129883)"/>
</clipPath>
<clipPath id="clip1_0_101">
<rect width="25" height="25" fill="white" transform="translate(0.0195312 0.129883)"/>
</clipPath>
<clipPath id="clip2_0_101">
<rect width="25" height="25" fill="white" transform="translate(0.0195312 0.129883)"/>
</clipPath>
</defs>
</svg>
